<?xml version="1.0" encoding="UTF-8" standalone="no"?>
<!DOCTYPE svg PUBLIC "-//W3C//DTD SVG 1.1//EN" "http://www.w3.org/Graphics/SVG/1.1/DTD/svg11.dtd">
<svg version="1.1" xmlns="http://www.w3.org/2000/svg" xmlns:xlink="http://www.w3.org/1999/xlink" preserveAspectRatio="xMidYMid meet" viewBox="113.28282828282818 75.84848484848484 265.69696969696975 273.4985471149856" width="261.7" height="269.5"><defs><path d="M326.33 206.67C353.75 206.67 375.98 228.9 375.98 256.32C375.98 274.32 375.98 313.48 375.98 340.18C375.98 343.59 373.22 346.35 369.82 346.35C318.71 346.35 171.55 346.35 120.45 346.35C117.04 346.35 114.28 343.59 114.28 340.18C114.28 313.48 114.28 274.32 114.28 256.32C114.28 228.9 136.51 206.67 163.93 206.67C206.34 206.67 283.92 206.67 326.33 206.67Z" id="axMnRDGBz"></path><path d="M290.55 206.67L245.13 335.07L196.71 206.67L290.55 206.67Z" id="bosCVj5Qn"></path><path d="M313.82 160.65C313.82 198.56 283.04 229.33 245.13 229.33C207.22 229.33 176.44 198.56 176.44 160.65C176.44 122.74 207.22 91.96 245.13 91.96C283.04 91.96 313.82 122.74 313.82 160.65Z" id="gHD1UzLCw"></path><path d="M177.82 142.79L185.37 135.23L192.93 128.36L201.17 122.18L210.1 116.69L219.03 111.88L216.97 122.18L227.27 122.18L236.89 118.75L247.19 116.69L257.49 116L267.8 116L278.1 116L287.72 118.75L296.65 123.56L303.52 131.8L309.7 140.04L312.44 130.42L309.7 120.81L304.2 111.88L302.83 101.58L293.21 98.14L284.28 92.65L276.04 86.46L265.74 85.09L255.43 84.4L245.82 79.6L236.2 76.85L226.59 79.6L217.66 84.4L207.35 85.78L200.48 93.33L192.93 100.89L184 106.38L181.25 116L179.19 126.3L177.82 142.79" id="k1gPJJYkA7"></path></defs><g><g><use xlink:href="#axMnRDGBz" opacity="1" fill="#0f6b93" fill-opacity="1"></use></g><g><use xlink:href="#bosCVj5Qn" opacity="1" fill="#ffffff" fill-opacity="1"></use><g><use xlink:href="#bosCVj5Qn" opacity="1" fill-opacity="0" stroke="#000000" stroke-width="1" stroke-opacity="1"></use></g></g><g><use xlink:href="#gHD1UzLCw" opacity="1" fill="#edba8a" fill-opacity="1"></use></g><g><use xlink:href="#k1gPJJYkA7" opacity="1" fill="#000000" fill-opacity="1"></use><g><use xlink:href="#k1gPJJYkA7" opacity="1" fill-opacity="0" stroke="#000000" stroke-width="1" stroke-opacity="1"></use></g></g></g></svg>