<?xml version="1.0" standalone="no"?>
<!DOCTYPE svg PUBLIC "-//W3C//DTD SVG 20010904//EN"
 "http://www.w3.org/TR/2001/REC-SVG-20010904/DTD/svg10.dtd">
<svg version="1.0" xmlns="http://www.w3.org/2000/svg"
 width="323.000000pt" height="323.000000pt" viewBox="0 0 323.000000 323.000000"
 preserveAspectRatio="xMidYMid meet">
<metadata>
Created by potrace 1.11, written by Peter Selinger 2001-2013
</metadata>
<g transform="translate(0.000000,323.000000) scale(0.100000,-0.100000)"
fill="#000000" stroke="none">
<path d="M1440 2905 c-201 -22 -361 -71 -474 -146 -32 -21 -64 -39 -70 -39 -7
0 -19 12 -27 26 -20 37 -95 101 -134 114 -40 13 -85 -5 -111 -45 -15 -24 -15
-40 -1 -228 39 -479 40 -530 33 -1192 -7 -654 -3 -758 29 -866 35 -122 63
-142 186 -137 76 3 92 6 111 26 l23 23 3 469 c1 259 5 470 8 470 3 0 44 -16
91 -36 213 -88 657 -355 1118 -673 291 -200 459 -308 538 -347 81 -39 98 -44
161 -44 70 0 152 17 193 38 28 15 42 59 31 99 -10 39 -82 103 -178 161 -118
70 -995 571 -1120 639 -30 17 -104 57 -165 90 -60 33 -191 102 -290 153 -258
132 -300 164 -260 194 52 39 253 114 835 313 106 36 333 128 425 173 187 89
333 207 370 297 19 46 19 112 -1 151 -46 93 -259 204 -523 272 -203 52 -554
72 -801 45z m889 -268 c75 -26 107 -60 97 -102 -17 -66 -151 -169 -342 -262
-382 -187 -996 -385 -1071 -345 -28 15 -69 97 -84 167 -7 33 -13 112 -13 175
0 99 3 121 21 155 33 63 85 102 193 143 173 66 380 88 845 90 276 1 293 0 354
-21z"/>
</g>
</svg>
